<mxfile host="65bd71144e" pages="12">
    <diagram id="zxiMMqg18uh5qxZYFMHz" name="mysql-masterber">
        <mxGraphModel dx="898" dy="645" grid="1" gridSize="10" guides="1" tooltips="1" connect="1" arrows="1" fold="1" page="1" pageScale="1" pageWidth="3300" pageHeight="4681" math="0" shadow="0">
            <root>
                <mxCell id="2hyfxFbdaOaG7qhqnBez-0"/>
                <mxCell id="2hyfxFbdaOaG7qhqnBez-1" parent="2hyfxFbdaOaG7qhqnBez-0"/>
                <mxCell id="4xE6NEvUFP_9sswRZC3e-0" value="" style="fontColor=#ffffff;verticalAlign=top;verticalLabelPosition=bottom;labelPosition=center;align=center;html=1;outlineConnect=0;fillColor=#2A9D8F;strokeColor=#6F0000;gradientDirection=north;strokeWidth=2;shape=mxgraph.networks.server_storage;" parent="2hyfxFbdaOaG7qhqnBez-1" vertex="1">
                    <mxGeometry x="415.5" y="530" width="105" height="105" as="geometry"/>
                </mxCell>
                <mxCell id="4xE6NEvUFP_9sswRZC3e-1" style="edgeStyle=orthogonalEdgeStyle;rounded=1;html=1;entryX=0;entryY=0.5;entryDx=0;entryDy=0;entryPerimeter=0;fontSize=16;startArrow=classic;startFill=1;endArrow=classic;endFill=1;strokeWidth=2;exitX=0.88;exitY=0.5;exitDx=0;exitDy=0;exitPerimeter=0;" parent="2hyfxFbdaOaG7qhqnBez-1" source="4xE6NEvUFP_9sswRZC3e-2" target="4xE6NEvUFP_9sswRZC3e-0" edge="1">
                    <mxGeometry relative="1" as="geometry"/>
                </mxCell>
                <mxCell id="4xE6NEvUFP_9sswRZC3e-2" value="" style="fontColor=#ffffff;verticalAlign=top;verticalLabelPosition=bottom;labelPosition=center;align=center;html=1;outlineConnect=0;fillColor=#E63946;strokeColor=#6F0000;gradientDirection=north;strokeWidth=2;shape=mxgraph.networks.server_storage;" parent="2hyfxFbdaOaG7qhqnBez-1" vertex="1">
                    <mxGeometry x="260" y="530" width="105" height="105" as="geometry"/>
                </mxCell>
                <mxCell id="4xE6NEvUFP_9sswRZC3e-3" value="主库" style="text;html=1;align=center;verticalAlign=middle;resizable=0;points=[];autosize=1;strokeColor=none;fillColor=none;fontSize=16;" parent="2hyfxFbdaOaG7qhqnBez-1" vertex="1">
                    <mxGeometry x="278" y="640" width="50" height="20" as="geometry"/>
                </mxCell>
                <mxCell id="4xE6NEvUFP_9sswRZC3e-4" value="备库" style="text;html=1;align=center;verticalAlign=middle;resizable=0;points=[];autosize=1;strokeColor=none;fillColor=none;fontSize=16;" parent="2hyfxFbdaOaG7qhqnBez-1" vertex="1">
                    <mxGeometry x="433" y="640" width="50" height="20" as="geometry"/>
                </mxCell>
                <mxCell id="4xE6NEvUFP_9sswRZC3e-5" style="edgeStyle=none;html=1;entryX=0.5;entryY=0;entryDx=0;entryDy=0;entryPerimeter=0;fontSize=17;" parent="2hyfxFbdaOaG7qhqnBez-1" source="4xE6NEvUFP_9sswRZC3e-6" target="4xE6NEvUFP_9sswRZC3e-2" edge="1">
                    <mxGeometry relative="1" as="geometry"/>
                </mxCell>
                <mxCell id="4xE6NEvUFP_9sswRZC3e-6" value="&lt;span style=&quot;font-size: 17px&quot;&gt;读写&lt;/span&gt;" style="text;html=1;align=center;verticalAlign=middle;resizable=0;points=[];autosize=1;strokeColor=none;fillColor=none;" parent="2hyfxFbdaOaG7qhqnBez-1" vertex="1">
                    <mxGeometry x="288" y="460" width="50" height="20" as="geometry"/>
                </mxCell>
                <mxCell id="4xE6NEvUFP_9sswRZC3e-9" value="&lt;font style=&quot;font-size: 14px&quot;&gt;数据&lt;br&gt;同步&lt;/font&gt;" style="text;html=1;align=center;verticalAlign=middle;resizable=0;points=[];autosize=1;strokeColor=none;fillColor=none;fontSize=17;" parent="2hyfxFbdaOaG7qhqnBez-1" vertex="1">
                    <mxGeometry x="360" y="525" width="40" height="50" as="geometry"/>
                </mxCell>
            </root>
        </mxGraphModel>
    </diagram>
    <diagram id="RsRP9B9AAVp191ZDmprR" name="mysql-double-master">
        <mxGraphModel dx="898" dy="645" grid="1" gridSize="10" guides="1" tooltips="1" connect="1" arrows="1" fold="1" page="1" pageScale="1" pageWidth="3300" pageHeight="4681" math="0" shadow="0">
            <root>
                <mxCell id="WON-8Yf6mHgz9woykRdc-0"/>
                <mxCell id="WON-8Yf6mHgz9woykRdc-1" parent="WON-8Yf6mHgz9woykRdc-0"/>
                <mxCell id="I6yT-xizrvu8oVktJPII-1" style="edgeStyle=orthogonalEdgeStyle;rounded=1;html=1;entryX=0;entryY=0.5;entryDx=0;entryDy=0;entryPerimeter=0;fontSize=16;startArrow=classic;startFill=1;endArrow=classic;endFill=1;strokeWidth=2;exitX=0.88;exitY=0.5;exitDx=0;exitDy=0;exitPerimeter=0;" parent="WON-8Yf6mHgz9woykRdc-1" source="I6yT-xizrvu8oVktJPII-2" edge="1">
                    <mxGeometry relative="1" as="geometry">
                        <mxPoint x="415.5" y="582.5" as="targetPoint"/>
                    </mxGeometry>
                </mxCell>
                <mxCell id="I6yT-xizrvu8oVktJPII-2" value="" style="fontColor=#ffffff;verticalAlign=top;verticalLabelPosition=bottom;labelPosition=center;align=center;html=1;outlineConnect=0;fillColor=#E63946;strokeColor=#6F0000;gradientDirection=north;strokeWidth=2;shape=mxgraph.networks.server_storage;" parent="WON-8Yf6mHgz9woykRdc-1" vertex="1">
                    <mxGeometry x="260" y="530" width="105" height="105" as="geometry"/>
                </mxCell>
                <mxCell id="I6yT-xizrvu8oVktJPII-3" value="主库" style="text;html=1;align=center;verticalAlign=middle;resizable=0;points=[];autosize=1;strokeColor=none;fillColor=none;fontSize=16;" parent="WON-8Yf6mHgz9woykRdc-1" vertex="1">
                    <mxGeometry x="278" y="640" width="50" height="20" as="geometry"/>
                </mxCell>
                <mxCell id="I6yT-xizrvu8oVktJPII-4" value="主库" style="text;html=1;align=center;verticalAlign=middle;resizable=0;points=[];autosize=1;strokeColor=none;fillColor=none;fontSize=16;" parent="WON-8Yf6mHgz9woykRdc-1" vertex="1">
                    <mxGeometry x="433" y="640" width="50" height="20" as="geometry"/>
                </mxCell>
                <mxCell id="I6yT-xizrvu8oVktJPII-5" style="edgeStyle=none;html=1;entryX=0.5;entryY=0;entryDx=0;entryDy=0;entryPerimeter=0;fontSize=17;" parent="WON-8Yf6mHgz9woykRdc-1" source="I6yT-xizrvu8oVktJPII-6" target="I6yT-xizrvu8oVktJPII-2" edge="1">
                    <mxGeometry relative="1" as="geometry"/>
                </mxCell>
                <mxCell id="I6yT-xizrvu8oVktJPII-6" value="&lt;span style=&quot;font-size: 17px&quot;&gt;读写&lt;/span&gt;" style="text;html=1;align=center;verticalAlign=middle;resizable=0;points=[];autosize=1;strokeColor=none;fillColor=none;" parent="WON-8Yf6mHgz9woykRdc-1" vertex="1">
                    <mxGeometry x="288" y="460" width="50" height="20" as="geometry"/>
                </mxCell>
                <mxCell id="I6yT-xizrvu8oVktJPII-7" value="&lt;font style=&quot;font-size: 14px&quot;&gt;数据&lt;br&gt;同步&lt;/font&gt;" style="text;html=1;align=center;verticalAlign=middle;resizable=0;points=[];autosize=1;strokeColor=none;fillColor=none;fontSize=17;" parent="WON-8Yf6mHgz9woykRdc-1" vertex="1">
                    <mxGeometry x="365" y="530" width="40" height="50" as="geometry"/>
                </mxCell>
                <mxCell id="I6yT-xizrvu8oVktJPII-15" value="" style="fontColor=#ffffff;verticalAlign=top;verticalLabelPosition=bottom;labelPosition=center;align=center;html=1;outlineConnect=0;fillColor=#E63946;strokeColor=#6F0000;gradientDirection=north;strokeWidth=2;shape=mxgraph.networks.server_storage;" parent="WON-8Yf6mHgz9woykRdc-1" vertex="1">
                    <mxGeometry x="420" y="532.5" width="104" height="105" as="geometry"/>
                </mxCell>
                <mxCell id="I6yT-xizrvu8oVktJPII-16" style="edgeStyle=none;html=1;entryX=0.5;entryY=0;entryDx=0;entryDy=0;entryPerimeter=0;fontSize=17;" parent="WON-8Yf6mHgz9woykRdc-1" source="I6yT-xizrvu8oVktJPII-17" target="I6yT-xizrvu8oVktJPII-15" edge="1">
                    <mxGeometry relative="1" as="geometry"/>
                </mxCell>
                <mxCell id="I6yT-xizrvu8oVktJPII-17" value="&lt;span style=&quot;font-size: 17px&quot;&gt;读写&lt;/span&gt;" style="text;html=1;align=center;verticalAlign=middle;resizable=0;points=[];autosize=1;strokeColor=none;fillColor=none;" parent="WON-8Yf6mHgz9woykRdc-1" vertex="1">
                    <mxGeometry x="448" y="462.5" width="50" height="20" as="geometry"/>
                </mxCell>
            </root>
        </mxGraphModel>
    </diagram>
    <diagram id="PPix5KqgkIuc9pnX2cv8" name="mysql-masterslave">
        <mxGraphModel dx="898" dy="645" grid="1" gridSize="10" guides="1" tooltips="1" connect="1" arrows="1" fold="1" page="1" pageScale="1" pageWidth="3300" pageHeight="4681" math="0" shadow="0">
            <root>
                <mxCell id="e5_4YLHVzQKnL3esgG_M-0"/>
                <mxCell id="e5_4YLHVzQKnL3esgG_M-1" parent="e5_4YLHVzQKnL3esgG_M-0"/>
                <mxCell id="e5_4YLHVzQKnL3esgG_M-3" value="" style="fontColor=#ffffff;verticalAlign=top;verticalLabelPosition=bottom;labelPosition=center;align=center;html=1;outlineConnect=0;fillColor=#2A9D8F;strokeColor=#6F0000;gradientDirection=north;strokeWidth=2;shape=mxgraph.networks.server_storage;" parent="e5_4YLHVzQKnL3esgG_M-1" vertex="1">
                    <mxGeometry x="415.5" y="530" width="105" height="105" as="geometry"/>
                </mxCell>
                <mxCell id="e5_4YLHVzQKnL3esgG_M-4" style="edgeStyle=orthogonalEdgeStyle;rounded=1;html=1;entryX=0;entryY=0.5;entryDx=0;entryDy=0;entryPerimeter=0;fontSize=16;startArrow=none;startFill=0;endArrow=classic;endFill=1;strokeWidth=2;exitX=0.88;exitY=0.5;exitDx=0;exitDy=0;exitPerimeter=0;" parent="e5_4YLHVzQKnL3esgG_M-1" source="e5_4YLHVzQKnL3esgG_M-7" target="e5_4YLHVzQKnL3esgG_M-3" edge="1">
                    <mxGeometry relative="1" as="geometry"/>
                </mxCell>
                <mxCell id="e5_4YLHVzQKnL3esgG_M-7" value="" style="fontColor=#ffffff;verticalAlign=top;verticalLabelPosition=bottom;labelPosition=center;align=center;html=1;outlineConnect=0;fillColor=#E63946;strokeColor=#6F0000;gradientDirection=north;strokeWidth=2;shape=mxgraph.networks.server_storage;" parent="e5_4YLHVzQKnL3esgG_M-1" vertex="1">
                    <mxGeometry x="260" y="530" width="105" height="105" as="geometry"/>
                </mxCell>
                <mxCell id="e5_4YLHVzQKnL3esgG_M-16" value="主库" style="text;html=1;align=center;verticalAlign=middle;resizable=0;points=[];autosize=1;strokeColor=none;fillColor=none;fontSize=16;" parent="e5_4YLHVzQKnL3esgG_M-1" vertex="1">
                    <mxGeometry x="278" y="640" width="50" height="20" as="geometry"/>
                </mxCell>
                <mxCell id="e5_4YLHVzQKnL3esgG_M-17" value="从库" style="text;html=1;align=center;verticalAlign=middle;resizable=0;points=[];autosize=1;strokeColor=none;fillColor=none;fontSize=16;" parent="e5_4YLHVzQKnL3esgG_M-1" vertex="1">
                    <mxGeometry x="433" y="640" width="50" height="20" as="geometry"/>
                </mxCell>
                <mxCell id="e5_4YLHVzQKnL3esgG_M-46" style="edgeStyle=none;html=1;entryX=0.5;entryY=0;entryDx=0;entryDy=0;entryPerimeter=0;fontSize=17;" parent="e5_4YLHVzQKnL3esgG_M-1" source="e5_4YLHVzQKnL3esgG_M-23" target="e5_4YLHVzQKnL3esgG_M-7" edge="1">
                    <mxGeometry relative="1" as="geometry"/>
                </mxCell>
                <mxCell id="e5_4YLHVzQKnL3esgG_M-23" value="&lt;font style=&quot;font-size: 17px&quot;&gt;写&lt;/font&gt;" style="text;html=1;align=center;verticalAlign=middle;resizable=0;points=[];autosize=1;strokeColor=none;fillColor=none;" parent="e5_4YLHVzQKnL3esgG_M-1" vertex="1">
                    <mxGeometry x="298" y="460" width="30" height="20" as="geometry"/>
                </mxCell>
                <mxCell id="e5_4YLHVzQKnL3esgG_M-47" style="edgeStyle=none;html=1;entryX=0.5;entryY=0;entryDx=0;entryDy=0;entryPerimeter=0;fontSize=17;" parent="e5_4YLHVzQKnL3esgG_M-1" source="e5_4YLHVzQKnL3esgG_M-45" target="e5_4YLHVzQKnL3esgG_M-3" edge="1">
                    <mxGeometry relative="1" as="geometry"/>
                </mxCell>
                <mxCell id="e5_4YLHVzQKnL3esgG_M-45" value="&lt;font style=&quot;font-size: 17px&quot;&gt;读&lt;/font&gt;" style="text;html=1;align=center;verticalAlign=middle;resizable=0;points=[];autosize=1;strokeColor=none;fillColor=none;" parent="e5_4YLHVzQKnL3esgG_M-1" vertex="1">
                    <mxGeometry x="453" y="460" width="30" height="20" as="geometry"/>
                </mxCell>
                <mxCell id="e5_4YLHVzQKnL3esgG_M-48" value="&lt;font style=&quot;font-size: 14px&quot;&gt;数据&lt;br&gt;同步&lt;/font&gt;" style="text;html=1;align=center;verticalAlign=middle;resizable=0;points=[];autosize=1;strokeColor=none;fillColor=none;fontSize=17;" parent="e5_4YLHVzQKnL3esgG_M-1" vertex="1">
                    <mxGeometry x="360" y="525" width="40" height="50" as="geometry"/>
                </mxCell>
            </root>
        </mxGraphModel>
    </diagram>
</mxfile>